<svg id="Layer_1" data-name="Layer 1" xmlns="http://www.w3.org/2000/svg" width="126" height="50" viewBox="0 0 126 50">
  <defs>
    <style>
      .cls-1 {
        fill: red;
      }
    </style>
  </defs>
  <title>Mstar-logo-50px-01-04</title>
  <g>
    <rect class="cls-1" x="67.193" y="10.898" width="2.409" height="26.478"/>
    <polygon class="cls-1" points="100.367 10.898 108.052 10.898 108.052 13.105 105.438 13.105 105.438 37.376 103.019 37.376 103.019 13.105 100.367 13.105 100.367 10.898"/>
    <polygon class="cls-1" points="64.991 10.898 64.991 37.376 62.468 37.376 58.861 21.296 58.861 37.376 56.494 37.376 56.494 10.898 58.671 10.898 62.624 28.439 62.624 10.898 64.991 10.898"/>
    <polygon class="cls-1" points="12.611 10.898 12.611 37.376 10.244 37.376 10.244 14.68 7.323 37.376 5.352 37.376 2.478 14.68 2.478 37.376 0.096 37.376 0.096 10.898 4.126 10.898 6.434 26.861 8.61 10.898 12.611 10.898"/>
    <path class="cls-1" d="M41.949,37.384a15.324,15.324,0,1,0-24.694,0h3.187a12.9,12.9,0,1,1,18.332,0h3.175Z"/>
    <path class="cls-1" d="M116.772,37.376h-2.355l-0.623-5.964H110.27L109.7,37.376h-2.4L110.009,10.9h3.674Zm-3.2-8.355-1.6-14.6-1.478,14.6h3.08Z"/>
    <path class="cls-1" d="M88,34.013a1.53,1.53,0,1,1-3.01,0v-20a1.53,1.53,0,1,1,3.01,0l-0.006.956v4.992h2.422V16.114l0-1.113c-0.017-3.3-1.308-4.874-4-4.874-2.4,0-3.96,1.7-3.96,4.314l0,0.972V31.987l0,1.073c0,3.393,1.316,5.047,4.017,5.047s3.947-1.624,3.947-5.117V23.357H85.965v2.319H87.99v7.459Z"/>
    <path class="cls-1" d="M97.924,33.379V26.495l-5.517-4.124V14.677c0-3.024,1.361-4.57,4.025-4.57,2.707,0,3.938,1.534,3.953,4.934l0.007,1.055V20H97.924V14.764l-0.005-.75a1.517,1.517,0,1,0-2.98,0v7.206l5.452,4.119V33.3c0,3.112-1.386,4.779-3.975,4.779-2.623,0-3.987-1.571-4-4.607l0-1.047V27.243H94.94v6.771a1.517,1.517,0,1,0,2.98,0Z"/>
    <path class="cls-1" d="M55.031,37.376H52.617a8.021,8.021,0,0,1-.49-2.846l-0.02-1.354L52.1,32.488V27.319a1.4,1.4,0,0,0-1.423-1.579H48.954V37.376H46.591V10.9h3.084c3.464,0,4.8,1.267,4.8,4.654v4.973c0,2.228-.372,3.162-2.116,3.805,0.025,0.007.049,0.018,0.073,0.025,1.647,0.48,2.016,1.1,2.035,3.194l0.008,0.962v4.832A11.453,11.453,0,0,0,55.031,37.376ZM48.954,12.983V23.469H49.8A1.979,1.979,0,0,0,52.1,21.233v-5.4c0-2.174-.5-2.854-2.112-2.854H48.954Z"/>
    <path class="cls-1" d="M125.841,37.376h-2.416a8,8,0,0,1-.489-2.846l-0.02-1.354-0.009-.687V27.319a1.4,1.4,0,0,0-1.422-1.579h-1.721V37.376H117.4V10.9h3.085c3.464,0,4.8,1.267,4.8,4.654v4.973c0,2.228-.373,3.162-2.113,3.805,0.023,0.007.047,0.018,0.073,0.025,1.646,0.48,2.016,1.1,2.035,3.194l0.006,0.962v4.832A11.429,11.429,0,0,0,125.841,37.376Zm-6.077-24.393V23.469h0.849a1.979,1.979,0,0,0,2.294-2.236v-5.4c0-2.174-.5-2.854-2.112-2.854h-1.031Z"/>
    <polygon class="cls-1" points="80.263 10.898 80.263 37.376 77.741 37.376 74.134 21.296 74.134 37.376 71.767 37.376 71.767 10.898 73.944 10.898 77.896 28.439 77.896 10.898 80.263 10.898"/>
  </g>
</svg>
